<svg xmlns="http://www.w3.org/2000/svg" width="178.359" height="49.212" viewBox="0 0 178.359 49.212"><g id="Raggruppa_42" data-name="Raggruppa 42" transform="translate(-910.999 -877.749)"><g id="Raggruppa_28" data-name="Raggruppa 28" transform="translate(988.308 881.641)"><path id="Tracciato_28" data-name="Tracciato 28" d="M.956,2.89a3.376,3.376,0,0,0,2.637-1.3A4.819,4.819,0,0,0,4.772-1.465a1.862,1.862,0,0,0-.528-1.6,2.851,2.851,0,0,0-1.8-.6A3.062,3.062,0,0,0-.069-2.306,5.271,5.271,0,0,0-1.209.655a2,2,0,0,0,.59,1.728A2.414,2.414,0,0,0,.956,2.89" transform="translate(1.211 3.662)" fill="#ff0058"></path></g><g id="Raggruppa_29" data-name="Raggruppa 29" transform="translate(910.999 877.749)"><path id="Tracciato_29" data-name="Tracciato 29" d="M78.6,9.041a.979.979,0,0,0-.6-.313c-.179,0-.558.281-1.152.846-.363.363-.726.721-1.088,1.065a.924.924,0,0,1-.3.184c-.249.149-.428.125-.535-.064a25.9,25.9,0,0,0,1.65-2.693q.25-.47.769-1.777a11.071,11.071,0,0,0,.737-4.038A1.7,1.7,0,0,0,77.564.964,1.657,1.657,0,0,0,76.3.446a1.925,1.925,0,0,0-1.283.565,10.872,10.872,0,0,0-2.607,3.68,11.726,11.726,0,0,0-1.215,4.622,4.576,4.576,0,0,0,.531,2.4.434.434,0,0,1-.138.254c-.095.1-.14.174-.14.22-.735,1.261-1.569,1.9-2.512,1.914-.868.016-1.3-.478-1.279-1.49A22.406,22.406,0,0,1,69.439,8.3Q71,5.149,72.522,1.954q3.089-6.608,3.108-7.47a4.341,4.341,0,0,0-.735-2.036A2.171,2.171,0,0,0,73.3-8.785a.712.712,0,0,0-.773.231c-.182.288-.354.6-.519.909Q69.353-2.78,67.24,1.328a46.482,46.482,0,0,1-7.774,9.928,1.814,1.814,0,0,1-1.082.666c-.6.011-.73-.5-.374-1.539q1.664-3.559,3.015-6.28a7.709,7.709,0,0,0,.809-2.458c.009-.53-.349-.814-1.086-.846a4.734,4.734,0,0,0-2.278.709,5.279,5.279,0,0,0-1.911,1.415A72.08,72.08,0,0,1,51.73,9.161a4.685,4.685,0,0,1-1.5,1.249c-.31.106-.467-.011-.462-.347a1.973,1.973,0,0,1,.286-.871c.879-1.886,1.524-3.339,1.948-4.351a2.568,2.568,0,0,0,.249-.943,3.538,3.538,0,0,0-.578-1.569C50.984,1.066,50.409.442,49.966.449a1.16,1.16,0,0,0-.782.483q-3.892,4.82-6.7,8.395a4.051,4.051,0,0,0-.617.868q-.314.293-.707.723A5.215,5.215,0,0,1,39.389,12.4c-.426.107-.639-.036-.633-.419a5.123,5.123,0,0,1,.392-1.408q3.476-7.517,6.565-14.008a3.889,3.889,0,0,0,.424-1.449,4.289,4.289,0,0,0-.313-1.249,3.9,3.9,0,0,0-.882-1.387,3.607,3.607,0,0,0-1.159-.916q-.531-.239-3.611,5.894-.762,1.49-3.018,5.037c-2.294,3.611-8.295,11.09-12.535,9.846-1.888-.487-2.813-2.2-2.763-5.131a13.118,13.118,0,0,1,.131-1.621,17.413,17.413,0,0,0,7.423-1.376A14.132,14.132,0,0,0,35.042.03a10.5,10.5,0,0,0,2.585-6.45q.083-4.957-5.915-5.035-4.114-.075-9.429,5.06a8.77,8.77,0,0,0-4.035-1.222,6.52,6.52,0,0,0-3.942,1.294,5.233,5.233,0,0,0-2.464,3.176,8.011,8.011,0,0,0-.191,1.589,6.353,6.353,0,0,0,.14,1.464,15.6,15.6,0,0,0-1.32,2.687q.04-1.221-3.63-1.224-1.779,0-4.468,2.5-.6.556-3.1,3.376c-1.007,1.2-3.738,5.194-5.538,5.194-.174,0-.258-.122-.25-.352.018-.512.793-2.226,2.319-5.157A13.96,13.96,0,0,0-2.539,2.97a.977.977,0,0,0-.106-.526A2.114,2.114,0,0,0-4.3,1.26a2.536,2.536,0,0,0-1.31.487c-.512.326-1.013.651-1.494.977a25.415,25.415,0,0,0-3.512,2.956c-.671.626-1.4,1.337-2.183,2.122a10.95,10.95,0,0,0,1.281-2.258,5.227,5.227,0,0,0,.084-2.437,2.739,2.739,0,0,0-.687-1.294,2.333,2.333,0,0,0-1.159-.8c-.555-.141-1.684,1.113-3.373,3.761-.71.95-6.232,7.45-7.012,7.45-.19,0-.288-.129-.277-.385a14.1,14.1,0,0,1,1.363-3.761A14.779,14.779,0,0,0-21.108,4,5.22,5.22,0,0,0-22.44,1.385a.834.834,0,0,0-.6-.415,7.243,7.243,0,0,0-1.047.242c-.433.116-1.075.78-1.916,1.99-.753,1.088-1.494,2.181-2.224,3.269A29.5,29.5,0,0,1-33.7,12.29a1.868,1.868,0,0,1-.76.435c-.331.1-.546.12-.651.05-.338-.211-.358-.71-.05-1.5q.15-.421,1.589-3.172.735-1.4,1.1-2.084.386-.6,1.585-2.682l1.15,0h.93a1.5,1.5,0,0,0,.948-.211s.2-.3.615-.9a1.027,1.027,0,0,0,.177-.454c.013-.4-.893-.6-2.709-.6a7.054,7.054,0,0,1,.383-.73,4.883,4.883,0,0,0,.522-1.88A2.571,2.571,0,0,0-29.279-2.9c-.243-.345-.506-.7-.775-1.043-.331-.415-.628-.626-.884-.628-.281,0-.549.211-.8.628Q-34.046-.077-34.29.344c-.138.186-.336.442-.61.76-1.424,0-2.267.224-2.521.666A1.565,1.565,0,0,0-37.6,2.4c-.02.576.315.87,1.007.871q-3.4,4.1-5.731,6.783A17.375,17.375,0,0,0-43.9,11.657a12.051,12.051,0,0,1-2.271,1.88,4.493,4.493,0,0,1-2.337.83c-.97-.02-1.383-.671-1.231-1.945A14.983,14.983,0,0,0-43.39,8.171q2.029-2.228,2.084-3.9a2.944,2.944,0,0,0-.832-2.092,2.736,2.736,0,0,0-2.147-.871q-2.072,0-4.813,2.154c-3.714,2.884-6.293,7.506-10.249,10.066a4.526,4.526,0,0,1-2.337.83c-.97-.02-1.383-.673-1.231-1.947a14.967,14.967,0,0,0,6.346-4.251q2.026-2.225,2.083-3.9a2.948,2.948,0,0,0-.832-2.093A2.742,2.742,0,0,0-57.464,1.3q-2.075,0-4.813,2.154C-65.546,6-67.96,9.626-71.488,12.616q-1.637,1.363-1.6.211A4.214,4.214,0,0,1-72.68,11.4q2.727-5.443,4.808-9.372a7.569,7.569,0,0,0,.7-2.61c.048-1.349-.651-2.022-2.106-2.022q-3.663,0-9.418,6.924c1.018-2.015,1.8-3.7,2.344-5.047a8.529,8.529,0,0,0,.719-2.859q.07-2.056-1.746-2.056a5.592,5.592,0,0,0-1.9.422Q-82.627-4-87.684,2.5q1.962-4.316,2.185-5.117A16.072,16.072,0,0,0-84.825-6.1c.081-2.3-.911-3.448-2.961-3.45A7.162,7.162,0,0,0-91.7-8.227c-.311.211-.58.4-.8.589a18.911,18.911,0,0,0-3.827,4.67A15.845,15.845,0,0,0-98.618,4.24a10.687,10.687,0,0,0,1.431,6.341c-.646,1.279-1.1,2.176-1.356,2.687a8.917,8.917,0,0,0-1.048,3.065c-.027.787.4,1.183,1.26,1.184a5.555,5.555,0,0,0,3.255-1.21,9.348,9.348,0,0,0,2.142-2.832h.775a4.43,4.43,0,0,0,2.331-.658.864.864,0,0,0,.478-.735c.014-.435-.181-.658-.59-.658a3.3,3.3,0,0,0-.923.313,3.337,3.337,0,0,1-1.34.313c.512-1.043.911-1.88,1.19-2.508q2.265-3.484,4.267-6.024Q-83.933-.071-82.893-.07c.261,0,.379.211.365.626A7.684,7.684,0,0,1-83.6,3.519q-4.477,8.433-5.987,11.737a3.714,3.714,0,0,0-.4,1.324q-.032.939,1.523.941A5.313,5.313,0,0,0-85.274,16.2a5.957,5.957,0,0,0,1.417-1.528c.184-.308.639-1.177,1.354-2.618l1.184-2.367a36.547,36.547,0,0,1,5.176-6.094,2.718,2.718,0,0,1,1.4-.837c.215,0,.315.166.3.492a5.464,5.464,0,0,1-.446,1.671q-1.243,3.137-3.246,7.522a5.492,5.492,0,0,0-.5,2.092q-.091,2.611,2.281,2.612c1.168,0,2.634-.716,4.391-2.161.5-.413,5.074-5.722,4.164-3.2a10.663,10.663,0,0,0-.231,1.145,3.424,3.424,0,0,0,.32,1.95,4.13,4.13,0,0,0,1.651,2.061,3.478,3.478,0,0,0,1.861.488q3.478,0,7.8-4.144a21.159,21.159,0,0,0,1.65-1.739,3.724,3.724,0,0,0,.528-.424,2.262,2.262,0,0,0-.4.667c-.048.186-.127.569-.231,1.145a3.429,3.429,0,0,0,.32,1.952,4.138,4.138,0,0,0,1.651,2.061,3.477,3.477,0,0,0,1.861.487c5.289,0,9.919-6.425,13.024-10.481q-2.872,4.944-3.24,7.352a2.268,2.268,0,0,0,.521,1.843A2.37,2.37,0,0,0-38.7,17.162q1.557,0,4.786-2.4c3.335-2.512,4.629-4.437,7.119-7.624q-2.058,4.214-2.417,5.085a8.3,8.3,0,0,0-.714,2.893,2.113,2.113,0,0,0,.438,1.286,1.825,1.825,0,0,0,1.562.837q1.465,0,4.6-2.607c2.687-2.224,4.69-5.09,6.922-7.8q-2.437,4.836-3.067,6.128c-.02.07-.324.581-.895,1.535a3.271,3.271,0,0,0-.576,1.5c-.029.859.349,1.286,1.125,1.288a3.683,3.683,0,0,0,2.074-.889,8.64,8.64,0,0,0,2.022-2.072q.819-1.181,2.954-3.723c1.238-1.483,2.081-2.455,2.514-2.909A1.832,1.832,0,0,1-9.037,7c.154,0,.224.059.22.174a.976.976,0,0,1-.14.422q-3.4,6.371-3.231,7.907.172,1.565,2.056,1.569a4.033,4.033,0,0,0,1.682-.365,17.089,17.089,0,0,0,3.086-2.385,24.033,24.033,0,0,0,3.147-3.1c.537-.322-.6,1.154-.669,2.988A3.448,3.448,0,0,0-2.589,16,2.8,2.8,0,0,0,.062,17.214a6.939,6.939,0,0,0,3.111-.83,5.365,5.365,0,0,1-.352.87c-1.276.512-2.177.9-2.705,1.183q-2.05,1.074-4.062,2.122A4.514,4.514,0,0,0-6.3,23.723a3.054,3.054,0,0,0,.811,2.771,4.245,4.245,0,0,0,2.988.961,10.671,10.671,0,0,0,2.575-.344q3.763-.977,8.184-10.451A24.74,24.74,0,0,0,14.8,11.506a4.821,4.821,0,0,0,.4-.533q.488,4.622,4.079,6.146a9.276,9.276,0,0,0,3.739.759c5.715-.1,10.005-6.93,12.983-11.494Q32.273,13,32.234,15.373a1.416,1.416,0,0,0,.123.685,2.329,2.329,0,0,0,2.288,1.5,6.954,6.954,0,0,0,3.673-1.539,21.189,21.189,0,0,0,3.035-2.936c.683-.805,1.367-1.591,2.043-2.376a.712.712,0,0,0,.111-.179Q44.59,9.323,46.646,6.7c-1.084,1.823-1.965,3.432-2.659,4.838a9.8,9.8,0,0,0-1.176,4.045c-.02,1.251.5,1.875,1.576,1.882q2.418-.005,9.354-8.336c-.88,1.913-1.546,3.383-1.986,4.423a3.067,3.067,0,0,0-.184,1.014,3.035,3.035,0,0,0,.542,1.861,1.953,1.953,0,0,0,1.689.868,3.328,3.328,0,0,0,1.515-.456C59.677,14.5,63.252,9.651,66.163,5.518c-.6,1.233-1.2,2.467-1.8,3.7a11.134,11.134,0,0,0-1.2,3.476,4.972,4.972,0,0,0,.723,2.757,3.236,3.236,0,0,0,3.026,1.637q2.842-.051,6.3-4.1a3.352,3.352,0,0,0,1.233.229,2.96,2.96,0,0,0,1.922-.828c1.592-1.415,2.39-2.415,2.4-2.99a.414.414,0,0,0-.166-.354M24.029-.453c.412-.68.861-1.369,1.338-2.072A10.1,10.1,0,0,1,27.015-.9a.67.67,0,0,0,.6.352A.939.939,0,0,0,28.082-.7a.706.706,0,0,0,.191-1.081,27.16,27.16,0,0,0-2.047-1.979q3.87-5.215,6.116-5.259a2.2,2.2,0,0,1,1.99,1.406,1.252,1.252,0,0,1,.089.533,8.176,8.176,0,0,1-1.6,3.841,17.713,17.713,0,0,1-4.3,4.537,12.058,12.058,0,0,1-6.207,2.525A15.1,15.1,0,0,1,24.029-.453M-46.7,6.287c1.115-1.508,1.873-2.263,2.285-2.263.261,0,.386.186.374.556a3.76,3.76,0,0,1-1.091,2.4Q-46.887,8.9-47.4,8.9c-.329,0-.485-.154-.474-.454A4.5,4.5,0,0,1-46.7,6.287m-13.179-.005c1.115-1.51,1.873-2.265,2.285-2.265.263,0,.386.186.374.558a3.768,3.768,0,0,1-1.091,2.4Q-60.066,8.9-60.581,8.9c-.329,0-.483-.154-.474-.454a4.487,4.487,0,0,1,1.177-2.161M-90.445-3.17q-.888,2.12-5.933,12.083A8.5,8.5,0,0,1-97.1,4.523a16.181,16.181,0,0,1,2.043-6.55,9.2,9.2,0,0,1,3.349-3.934l.2-.1a2.419,2.419,0,0,1,.521-.07c.691,0,1.023.417.993,1.254a4.977,4.977,0,0,1-.446,1.709m90.2,26.763C-.895,24.731-1.517,25.3-2.1,25.3c-.388,0-.574-.293-.555-.877a4.259,4.259,0,0,1,.51-1.632c.651-1.252,2.564-.338,1.9.8M7.1,9.066c-1.183,2.136-2.22,3.2-3.133,3.2a1.566,1.566,0,0,1-.544-.1c-.3-.141-.449-.313-.442-.524q.03-.8,2.163-4.28,1.822-3,3.026-3a.679.679,0,0,1,.383.107.487.487,0,0,1,.31.519A12.733,12.733,0,0,1,7.1,9.066m8.023.106c0,.068,0,.132,0,.2A.774.774,0,0,0,15,9.35c-.279,0-.726.3-1.331.907q-.2.174-2.521,2.571a10.912,10.912,0,0,1-1.736,1.4q3.363-7.136,5.055-10.691a9.873,9.873,0,0,0,1.372.728,20.53,20.53,0,0,0-.723,4.91m1.256-6.717a8.054,8.054,0,0,1-1.528-1.043c-.027-.059-.05-.118-.082-.181-.2-.345-.412-.685-.614-1.006a4.139,4.139,0,0,0-.673-.914,3.549,3.549,0,0,1-.118-.939,3.72,3.72,0,0,1,.769-2.24,4.518,4.518,0,0,1,3.686-1.9,7.754,7.754,0,0,1,3.17.7,21.475,21.475,0,0,0-4.611,7.531" transform="translate(99.593 11.456)" fill="#ff0058"></path></g><path id="Tracciato_31" data-name="Tracciato 31" d="M.823-5.759h86.62V-8.751H.823Z" transform="translate(911.649 920.055)" fill="#ff0058"></path><path id="Tracciato_32" data-name="Tracciato 32" d="M60.812-5.759h66.759V-8.752H60.812Z" transform="translate(958.993 920.054)" fill="#ff0058"></path><g id="Raggruppa_31" data-name="Raggruppa 31" transform="translate(915.987 918.188)"><path id="Tracciato_33" data-name="Tracciato 33" d="M1.669,1.495A3.737,3.737,0,0,1,.8,1.042.542.542,0,0,1,.594.6.493.493,0,0,1,.852.164,1.258,1.258,0,0,1,1.528,0,4.274,4.274,0,0,1,3.609.589V-1.568c-.36-.1-.642-.166-.845-.2S2.342-1.835,2.1-1.86a8.085,8.085,0,0,0-.809-.034,3.865,3.865,0,0,0-2.48.735A2.392,2.392,0,0,0-2.115.808,2.677,2.677,0,0,0-.091,3.352a6.33,6.33,0,0,1,.855.374,1.11,1.11,0,0,1,.345.293.594.594,0,0,1,.115.363A.491.491,0,0,1,1,4.823a1.148,1.148,0,0,1-.642.152,3.4,3.4,0,0,1-1.188-.24A4.779,4.779,0,0,1-2,4.1V6.431a6.3,6.3,0,0,0,2.41.447,5.5,5.5,0,0,0,1.943-.306,2.651,2.651,0,0,0,1.252-.936,2.463,2.463,0,0,0,.447-1.473,2.236,2.236,0,0,0-.54-1.5A4.837,4.837,0,0,0,1.669,1.495" transform="translate(2.115 1.894)" fill="#ff0058"></path></g><path id="Tracciato_35" data-name="Tracciato 35" d="M14.412,3.659H16.94V-4.825H14.412Z" transform="translate(922.373 923.153)" fill="#ff0058"></path><g id="Raggruppa_33" data-name="Raggruppa 33" transform="translate(954.566 918.328)"><path id="Tracciato_36" data-name="Tracciato 36" d="M2.53,1.679a7.744,7.744,0,0,0,.036.9H2.543a2.108,2.108,0,0,0-.1-.19c-.047-.07-.095-.143-.143-.218l-.152-.22c-.052-.07-.095-.131-.131-.181l-2.836-3.9H-3.206V6.359H-.867V2.8c0-.519-.011-.989-.036-1.408h.025a9.291,9.291,0,0,0,.573.877l2.959,4.1H4.871V-2.127H2.53Z" transform="translate(3.206 2.127)" fill="#ff0058"></path></g><g id="Raggruppa_34" data-name="Raggruppa 34" transform="translate(977.428 918.188)"><path id="Tracciato_37" data-name="Tracciato 37" d="M.967.251A3.993,3.993,0,0,0-.652,1.868a4.9,4.9,0,0,0-.573,2.392,4.6,4.6,0,0,0,.51,2.2A3.529,3.529,0,0,0,.768,7.937a4.827,4.827,0,0,0,2.31.517,7.031,7.031,0,0,0,2.4-.378V5.8a4.091,4.091,0,0,1-1.855.472A2.156,2.156,0,0,1,2.04,5.685a2.168,2.168,0,0,1-.592-1.609A2.191,2.191,0,0,1,2.04,2.457a2.176,2.176,0,0,1,1.623-.6,4.142,4.142,0,0,1,.982.116,2.975,2.975,0,0,1,.837.331V-.053A8.225,8.225,0,0,0,3.377-.318,4.966,4.966,0,0,0,.967.251" transform="translate(1.225 0.318)" fill="#ff0058"></path></g><g id="Raggruppa_36" data-name="Raggruppa 36" transform="translate(999.043 918.328)"><path id="Tracciato_39" data-name="Tracciato 39" d="M0,0V8.484H5.416v-2H2.526V5.239H5.058v-2H2.526V2h2.7V0Z" fill="#ff0058"></path></g><g id="Raggruppa_37" data-name="Raggruppa 37" transform="translate(1018.9 918.139)"><path id="Tracciato_40" data-name="Tracciato 40" d="M.649.354A6.263,6.263,0,0,1-.822.781V2.676A5.615,5.615,0,0,0,.171,2.49a3.6,3.6,0,0,0,.85-.369v6.1H3.511V-.448H2.044a7.517,7.517,0,0,1-1.4.8" transform="translate(0.822 0.448)" fill="#ff0058"></path></g><g id="Raggruppa_38" data-name="Raggruppa 38" transform="translate(1038.223 918.187)"><path id="Tracciato_41" data-name="Tracciato 41" d="M2.123.222a2.91,2.91,0,0,0-1.689-.5A3.425,3.425,0,0,0-1.2.1,2.66,2.66,0,0,0-2.3,1.184,3.377,3.377,0,0,0-2.69,2.83a2.978,2.978,0,0,0,.3,1.345,2.271,2.271,0,0,0,.819.918,2.11,2.11,0,0,0,1.149.329,1.9,1.9,0,0,0,1.6-.712H1.21A2.064,2.064,0,0,1,.736,6.157a1.777,1.777,0,0,1-1.344.49,3.392,3.392,0,0,1-.857-.127,2.251,2.251,0,0,1-.723-.306V8.161a5.067,5.067,0,0,0,1.925.333A3.441,3.441,0,0,0,2.561,7.237,5.367,5.367,0,0,0,3.587,3.754a5.634,5.634,0,0,0-.365-2.136,3.045,3.045,0,0,0-1.1-1.4M.933,3.394A.592.592,0,0,1,.4,3.682a.634.634,0,0,1-.515-.261,1.208,1.208,0,0,1-.2-.76,1.247,1.247,0,0,1,.208-.8A.644.644,0,0,1,.411,1.6a.591.591,0,0,1,.515.306,1.362,1.362,0,0,1,.191.737,1.352,1.352,0,0,1-.184.746" transform="translate(2.69 0.281)" fill="#ff0058"></path></g><g id="Raggruppa_39" data-name="Raggruppa 39" transform="translate(1058.999 918.186)"><path id="Tracciato_42" data-name="Tracciato 42" d="M2.136,1.829A2.435,2.435,0,0,0,3.143.988,1.99,1.99,0,0,0,3.488-.13a1.847,1.847,0,0,0-.376-1.124,2.424,2.424,0,0,0-1.059-.784A4.01,4.01,0,0,0,.511-2.318,3.885,3.885,0,0,0-1-2.035a2.528,2.528,0,0,0-1.063.791A1.793,1.793,0,0,0-2.443-.133,2.059,2.059,0,0,0-2.123.983a2.379,2.379,0,0,0,.961.834,2.8,2.8,0,0,0-1.152.871A2.153,2.153,0,0,0-2.706,4,2.133,2.133,0,0,0-1.817,5.76a3.665,3.665,0,0,0,2.3.683,4.211,4.211,0,0,0,1.646-.306,2.6,2.6,0,0,0,1.14-.877,2.132,2.132,0,0,0,.408-1.278,2.194,2.194,0,0,0-.363-1.258,2.675,2.675,0,0,0-1.183-.9M-.017-.477A.684.684,0,0,1,.527-.731a.7.7,0,0,1,.546.254.93.93,0,0,1,.22.632.928.928,0,0,1-.22.615.673.673,0,0,1-.546.267A.679.679,0,0,1-.015.77.944.944,0,0,1-.232.155.945.945,0,0,1-.017-.477m1.193,4.97a.89.89,0,0,1-.683.277.915.915,0,0,1-.68-.261.971.971,0,0,1-.256-.716.978.978,0,0,1,.268-.712.894.894,0,0,1,.667-.276.889.889,0,0,1,.673.281.984.984,0,0,1,.27.707.992.992,0,0,1-.259.7" transform="translate(2.706 2.318)" fill="#ff0058"></path></g><g id="Raggruppa_40" data-name="Raggruppa 40" transform="translate(1079.854 918.139)"><path id="Tracciato_43" data-name="Tracciato 43" d="M.649.354A6.263,6.263,0,0,1-.822.781V2.676A5.615,5.615,0,0,0,.171,2.49a3.63,3.63,0,0,0,.85-.369v6.1H3.511V-.448H2.044a7.46,7.46,0,0,1-1.4.8" transform="translate(0.822 0.448)" fill="#ff0058"></path></g></g></svg>